<svg width="22" height="18" viewBox="0 0 22 18" fill="none" xmlns="http://www.w3.org/2000/svg">
<rect x="20" y="1" width="1" height="1" fill="#00FF00"/>
<rect x="19" y="1" width="1" height="1" fill="#00FF00"/>
<rect x="19" y="2" width="1" height="1" fill="#00FF00"/>
<rect x="18" y="2" width="1" height="1" fill="#00FF00"/>
<rect x="18" y="3" width="1" height="1" fill="#00FF00"/>
<rect x="17" y="3" width="1" height="1" fill="#00FF00"/>
<rect x="17" y="4" width="1" height="1" fill="#00FF00"/>
<rect x="16" y="4" width="1" height="1" fill="#00FF00"/>
<rect x="16" y="5" width="1" height="1" fill="#00FF00"/>
<rect x="15" y="5" width="1" height="1" fill="#00FF00"/>
<rect x="15" y="6" width="1" height="1" fill="#00FF00"/>
<rect x="14" y="6" width="1" height="1" fill="#00FF00"/>
<rect x="14" y="7" width="1" height="1" fill="#00FF00"/>
<rect x="13" y="7" width="1" height="1" fill="#00FF00"/>
<rect x="13" y="8" width="1" height="1" fill="#00FF00"/>
<rect x="12" y="8" width="1" height="1" fill="#00FF00"/>
<rect x="12" y="9" width="1" height="1" fill="#00FF00"/>
<rect x="11" y="9" width="1" height="1" fill="#00FF00"/>
<rect x="11" y="10" width="1" height="1" fill="#00FF00"/>
<rect x="10" y="10" width="1" height="1" fill="#00FF00"/>
<rect x="10" y="11" width="1" height="1" fill="#00FF00"/>
<rect x="20" width="1" height="1" fill="#008000"/>
<rect x="19" width="1" height="1" fill="#008000"/>
<rect x="18" y="1" width="1" height="1" fill="#008000"/>
<rect x="17" y="2" width="1" height="1" fill="#008000"/>
<rect x="16" y="3" width="1" height="1" fill="#008000"/>
<rect x="15" y="4" width="1" height="1" fill="#008000"/>
<rect x="14" y="5" width="1" height="1" fill="#008000"/>
<rect x="13" y="6" width="1" height="1" fill="#008000"/>
<rect x="12" y="7" width="1" height="1" fill="#008000"/>
<rect x="11" y="8" width="1" height="1" fill="#008000"/>
<rect x="10" y="9" width="1" height="1" fill="#008000"/>
<rect x="9" y="10" width="1" height="1" fill="#008000"/>
<rect x="11" y="11" width="1" height="1" fill="#008000"/>
<rect x="12" y="10" width="1" height="1" fill="#008000"/>
<rect x="13" y="9" width="1" height="1" fill="#008000"/>
<rect x="14" y="8" width="1" height="1" fill="#008000"/>
<rect x="15" y="7" width="1" height="1" fill="#008000"/>
<rect x="16" y="6" width="1" height="1" fill="#008000"/>
<rect x="17" y="5" width="1" height="1" fill="#008000"/>
<rect x="18" y="4" width="1" height="1" fill="#008000"/>
<rect x="19" y="3" width="1" height="1" fill="#008000"/>
<rect x="20" y="2" width="1" height="1" fill="#008000"/>
<rect x="21" width="1" height="1" fill="black"/>
<rect x="21" y="1" width="1" height="1" fill="black"/>
<rect x="21" y="2" width="1" height="1" fill="black"/>
<rect x="20" y="3" width="1" height="1" fill="black"/>
<rect x="19" y="4" width="1" height="1" fill="black"/>
<rect x="18" y="5" width="1" height="1" fill="black"/>
<rect x="17" y="6" width="1" height="1" fill="black"/>
<rect x="16" y="7" width="1" height="1" fill="black"/>
<rect x="15" y="8" width="1" height="1" fill="black"/>
<rect x="14" y="9" width="1" height="1" fill="black"/>
<rect x="13" y="10" width="1" height="1" fill="black"/>
<rect x="12" y="11" width="1" height="1" fill="black"/>
<rect x="11" y="12" width="1" height="1" fill="black"/>
<rect x="10" y="12" width="1" height="1" fill="black"/>
<rect x="9" y="13" width="1" height="1" fill="black"/>
<rect x="8" y="14" width="1" height="1" fill="black"/>
<rect x="7" y="14" width="1" height="1" fill="black"/>
<rect x="7" y="15" width="1" height="1" fill="black"/>
<rect x="6" y="15" width="1" height="1" fill="black"/>
<rect x="6" y="16" width="1" height="1" fill="black"/>
<rect x="5" y="16" width="1" height="1" fill="black"/>
<rect x="5" y="17" width="1" height="1" fill="black"/>
<rect x="4" y="17" width="1" height="1" fill="black"/>
<rect x="3" y="17" width="1" height="1" fill="black"/>
<rect x="2" y="17" width="1" height="1" fill="black"/>
<rect x="1" y="17" width="1" height="1" fill="black"/>
<rect y="16" width="1" height="1" fill="black"/>
<rect x="9" y="11" width="1" height="1" fill="white"/>
<rect x="8" y="12" width="1" height="1" fill="white"/>
<rect x="7" y="13" width="1" height="1" fill="white"/>
<rect x="4" y="15" width="1" height="1" fill="#39FF14"/>
<rect x="1" y="16" width="1" height="1" fill="#39FF14"/>
<rect x="2" y="16" width="1" height="1" fill="#39FF14"/>
<rect x="3" y="15" width="1" height="1" fill="#39FF14"/>
<rect x="4" y="14" width="1" height="1" fill="#39FF14"/>
<rect x="3" y="16" width="1" height="1" fill="#C0C0C0"/>
<rect x="4" y="16" width="1" height="1" fill="#C0C0C0"/>
<rect x="5" y="15" width="1" height="1" fill="#C0C0C0"/>
<rect x="5" y="14" width="1" height="1" fill="#808080"/>
<rect x="6" y="14" width="1" height="1" fill="#808080"/>
<rect x="6" y="13" width="1" height="1" fill="#808080"/>
<rect x="7" y="12" width="1" height="1" fill="#808080"/>
<rect x="8" y="11" width="1" height="1" fill="#808080"/>
<rect x="8" y="13" width="1" height="1" fill="#FFFF00"/>
<rect x="9" y="12" width="1" height="1" fill="#FFFF00"/>
</svg>
